{"title":"Swedish House Mafia - Dont You Worry Child {M4A+MP4} (1080p) x26","uid":7818659,"size":61752133,"categoryP":"video","categoryS":"music_videos","magnet":"?xt=urn:btih:f04f649985e95e530361dc2844ba9dc84c088010&amp;dn=Swedish+House+Mafia+-+Dont+You+Worry+Child+%7BM4A%2BMP4%7D+%281080p%29+x26&amp;tr=udp%3A%2F%2Ftracker.openbittorrent.com%3A80&amp;tr=udp%3A%2F%2Fopen.demonii.com%3A1337&amp;tr=udp%3A%2F%2Ftracker.coppersurfer.tk%3A6969&amp;tr=udp%3A%2F%2Fexodus.desync.com%3A6969","seeders":6,"leechers":1,"uploader":"Vitamin_X","files":-1,"time":1352741774,"description":"Swedish House Mafia - Dont You Worry Child {M4A+MP4} (1080p) x264 [VX] [P2PDL]\n &lt;a href=&quot;\nhttp://www.shotpix.com/images/71472964248046434466.jpg&quot; rel=&quot;nofollow&quot; target=&quot;_NEW&quot;&gt;\nhttp://www.shotpix.com/images/71472964248046434466.jpg&lt;/a&gt;\n\nRelease Title: Swedish House Mafia - Dont You Worry Child (2012)\n\nMusic video by Swedish House Mafia Performing Dont You Worry Child\n\n                          1080p Full HD MP4 Video\n                                    +\n                          128 Kbps/VBR M4A Audio\n\nGeneral\nFormat                         : MPEG-4\nFormat profile                 : Base Media / Version 2\nCodec ID                       : mp42\nFile size                      : 54.8 MiB\nDuration                       : 5mn 34s\nOverall bit rate mode          : Variable\n\nVideo\nID                             : 1\nFormat                         : AVC\nFormat/Info                    : Advanced Video Codec\nBit rate                       : 1 250 Kbps\nWidth                          : 1 920 pixels\nHeight                         : 1 080 pixels\nDisplay aspect ratio           : 16:9\nFrame rate mode                : Constant\nFrame rate                     : 25.000 fps\nColor space                    : YUV\nChroma subsampling             : 4:2:0\nBit depth                      : 8 bits\nScan type                      : Progressive\nBits/(Pixel*Frame)             : 0.024\nStream size                    : 49.6 MiB (90%)\nWriting library                : x264 core 128\n\nAudio\nID                             : 2\nFormat                         : AAC\nBit rate mode                  : Variable\nBit rate                       : 127 Kbps\nChannel(s)                     : 2 channels\nChannel positions              : Front: L R\nSampling rate                  : 48.0 KHz\nStream size                    : 5.09 MiB (9%)\n\nSubtitles                      : No\n\nScreens:\n &lt;a href=&quot;\nhttp://www.shotpix.com/images/74494750579330436869.jpg&quot; rel=&quot;nofollow&quot; target=&quot;_NEW&quot;&gt;\nhttp://www.shotpix.com/images/74494750579330436869.jpg&lt;/a&gt; &lt;a href=&quot;\nhttp://www.shotpix.com/images/76714154309167583295.jpg&quot; rel=&quot;nofollow&quot; target=&quot;_NEW&quot;&gt;\nhttp://www.shotpix.com/images/76714154309167583295.jpg&lt;/a&gt;\n\nThumbs:\n &lt;a href=&quot;\nhttp://www.shotpix.com/images/41000089416330023821.jpg&quot; rel=&quot;nofollow&quot; target=&quot;_NEW&quot;&gt;\nhttp://www.shotpix.com/images/41000089416330023821.jpg&lt;/a&gt;\n------------------------------------------------------------------------\n\nNotes:\n\n* Recommended to use latest version VLC Media Player.\n* Install shark007 codecs in case of any kind of problem in playback (For non-VLC Media Player users).\n* Alternatively, install Core AVC codecs, the fastest decoder that there is coupled with Community Center Codec Pack and play on Windows Media Player Classic.\n* Read NFO\n* Help in seeding as much as you can. \n\nGreets to: VYTO, a2zRG, Azizex666, staff members at ExtraTorrent, TPB,KAT, 1337x, PublicHD, Ahashare,\nSilverTorrent, TorrentMafia, Digtorrent, BTScene, P2PDL, and all others\n\nEncoder Notes: Looking For Early Access To Anything You Can Provide DVDScr, R5, DVDRips, BluRay, Direct Audio, Early Music\nReleases, Seedboxes, Links, Dedicated Servers anything u can provide, Advance / Promo CDs/DVDs. If You Got anything to\noffer contact me at &quot;&lt;a class=&quot;__cf_email__&quot; href=&quot;/cdn-cgi/l/email-protection&quot; data-cfemail=&quot;6111130621091412094f020e0c&quot;&gt;[email&amp;#160;protected]&lt;/a&gt;&lt;script cf-hash='f9e31' type=&quot;text/javascript&quot;&gt;\n/* &lt;![CDATA[ */!function(){try{var t=&quot;currentScript&quot;in document?document.currentScript:function(){for(var t=document.getElementsByTagName(&quot;script&quot;),e=t.length;e--;)if(t[e].getAttribute(&quot;cf-hash&quot;))return t[e]}();if(t&amp;&amp;t.previousSibling){var e,r,n,i,c=t.previousSibling,a=c.getAttribute(&quot;data-cfemail&quot;);if(a){for(e=&quot;&quot;,r=parseInt(a.substr(0,2),16),n=2;a.length-n;n+=2)i=parseInt(a.substr(n,2),16)^r,e+=String.fromCharCode(i);e=document.createTextNode(e),c.parentNode.replaceChild(e,c)}}}catch(u){}}();/* ]]&gt; */&lt;/script&gt;&quot;\n\nFacebook Fan Page: www . facebook . com / p2pdl\n\n                               Enjoy!","torrent":{"xt":"urn:btih:f04f649985e95e530361dc2844ba9dc84c088010","amp;dn":"Swedish+House+Mafia+-+Dont+You+Worry+Child+%7BM4A%2BMP4%7D+%281080p%29+x26","amp;tr":["udp%3A%2F%2Ftracker.openbittorrent.com%3A80","udp%3A%2F%2Fopen.demonii.com%3A1337","udp%3A%2F%2Ftracker.coppersurfer.tk%3A6969","udp%3A%2F%2Fexodus.desync.com%3A6969"],"infoHash":"f04f649985e95e530361dc2844ba9dc84c088010","infoHashBuffer":{"type":"Buffer","data":[240,79,100,153,133,233,94,83,3,97,220,40,68,186,157,200,76,8,128,16]},"announce":[],"urlList":[]}}